<svg width="247" height="239" viewBox="0 0 247 239" fill="none" xmlns="http://www.w3.org/2000/svg">
<path d="M232.859 116.435C232.859 89.4979 223.519 63.3946 206.431 42.5724C189.343 21.7501 165.563 7.49712 139.144 2.24205C112.725 -3.01303 85.3011 1.05492 61.5451 13.7528C37.7891 26.4506 19.1709 46.9927 8.86269 71.8789C-1.44552 96.765 -2.80587 124.456 5.01342 150.232C12.8327 176.009 29.3478 198.277 51.7448 213.242C74.1418 228.208 101.035 234.944 127.842 232.304C154.649 229.663 179.711 217.81 198.758 198.763L163.12 163.125C152.318 173.927 138.105 180.649 122.902 182.147C107.699 183.644 92.4473 179.824 79.7454 171.336C67.0436 162.849 57.6775 150.221 53.243 135.602C48.8085 120.983 49.58 105.28 55.426 91.166C61.272 77.0525 71.8308 65.4026 85.3034 58.2014C98.776 51.0001 114.329 48.6931 129.311 51.6734C144.294 54.6537 157.78 62.7368 167.472 74.5456C177.163 86.3544 182.46 101.158 182.46 116.435H232.859Z" fill="url(#paint0_linear_2_8)"/>
<path d="M131.713 119.489C131.324 134.774 133.95 149.985 139.44 164.255C144.931 178.525 153.178 191.574 163.711 202.657C174.244 213.74 186.857 222.639 200.83 228.848C214.802 235.056 229.861 238.451 245.146 238.84L246.427 188.456C237.758 188.236 229.218 186.311 221.294 182.79C213.37 179.269 206.217 174.222 200.243 167.936C194.27 161.651 189.592 154.251 186.479 146.158C183.365 138.065 181.876 129.438 182.096 120.77L131.713 119.489Z" fill="url(#paint1_linear_2_8)"/>
<defs>
<linearGradient id="paint0_linear_2_8" x1="116.43" y1="0.00487893" x2="-14" y2="200" gradientUnits="userSpaceOnUse">
<stop stop-color="#7838A6"/>
<stop offset="1" stop-color="#E44F61"/>
</linearGradient>
<linearGradient id="paint1_linear_2_8" x1="146" y1="142" x2="238" y2="214" gradientUnits="userSpaceOnUse">
<stop stop-color="#DF6F79"/>
<stop offset="1" stop-color="#FF881A"/>
</linearGradient>
</defs>
</svg>
